<svg width="36" height="36" viewBox="0 0 36 36" fill="none" xmlns="http://www.w3.org/2000/svg">
<rect width="36" height="36" fill="#AB173F"/>
<path d="M18.7071 18.7071C19.0976 18.3166 19.0976 17.6834 18.7071 17.2929L12.3431 10.9289C11.9526 10.5384 11.3195 10.5384 10.9289 10.9289C10.5384 11.3195 10.5384 11.9526 10.9289 12.3431L16.5858 18L10.9289 23.6569C10.5384 24.0474 10.5384 24.6805 10.9289 25.0711C11.3195 25.4616 11.9526 25.4616 12.3431 25.0711L18.7071 18.7071ZM17 19H18V17H17V19Z" fill="white"/>
<path d="M17.2929 18.7071C16.9024 18.3166 16.9024 17.6834 17.2929 17.2929L23.6569 10.9289C24.0474 10.5384 24.6805 10.5384 25.0711 10.9289C25.4616 11.3195 25.4616 11.9526 25.0711 12.3431L19.4142 18L25.0711 23.6569C25.4616 24.0474 25.4616 24.6805 25.0711 25.0711C24.6805 25.4616 24.0474 25.4616 23.6569 25.0711L17.2929 18.7071ZM19 19H18V17H19V19Z" fill="white"/>
</svg>
