<svg width="16" height="19" viewBox="0 0 16 19" fill="none" xmlns="http://www.w3.org/2000/svg">
<path d="M7.80357 9.68153C8.34007 9.68153 8.7995 9.49177 9.18188 9.11226C9.5636 8.73338 9.75446 8.27771 9.75446 7.74522C9.75446 7.21274 9.5636 6.75674 9.18188 6.37722C8.7995 5.99835 8.34007 5.80892 7.80357 5.80892C7.26708 5.80892 6.80797 5.99835 6.42624 6.37722C6.04387 6.75674 5.85268 7.21274 5.85268 7.74522C5.85268 8.27771 6.04387 8.73338 6.42624 9.11226C6.80797 9.49177 7.26708 9.68153 7.80357 9.68153ZM7.80357 19C7.67351 19 7.54345 18.9758 7.41339 18.9274C7.28333 18.879 7.16953 18.8144 7.07199 18.7338C4.6984 16.6522 2.92634 14.7201 1.7558 12.9374C0.585268 11.1541 0 9.4879 0 7.93885C0 5.51847 0.784584 3.59023 2.35375 2.15414C3.92227 0.718047 5.73888 0 7.80357 0C9.86827 0 11.6849 0.718047 13.2534 2.15414C14.8226 3.59023 15.6071 5.51847 15.6071 7.93885C15.6071 9.4879 15.0219 11.1541 13.8513 12.9374C12.6808 14.7201 10.9087 16.6522 8.53516 18.7338C8.43761 18.8144 8.32381 18.879 8.19375 18.9274C8.06369 18.9758 7.93363 19 7.80357 19Z" fill="black"/>
</svg>
