<?xml version="1.0" encoding="utf-8"?>
<!-- Generator: Adobe Illustrator 26.0.1, SVG Export Plug-In . SVG Version: 6.00 Build 0)  -->
<svg version="1.1" id="Layer_1" xmlns="http://www.w3.org/2000/svg" xmlns:xlink="http://www.w3.org/1999/xlink" x="0px" y="0px"
	 viewBox="0 0 539.9 126.1" style="enable-background:new 0 0 539.9 126.1;" xml:space="preserve">
<style type="text/css">
	.st0{fill:url(#SVGID_1_);}
	.st1{fill:url(#SVGID_00000098941683279277046470000011490685802734305410_);}
	.st2{fill:url(#SVGID_00000039827352741630105660000005924391408652856758_);}
	.st3{fill:url(#SVGID_00000059268734449129492740000014617279566237512118_);}
	.st4{fill:url(#SVGID_00000119110244510243301150000008520716453268778381_);}
	.st5{fill:url(#SVGID_00000055666570212559646400000016260400476773045158_);}
	.st6{fill:url(#SVGID_00000137110985109737542020000007464480226464106174_);}
	.st7{fill:url(#SVGID_00000043426474244231961480000010381478319100245412_);}
	.st8{fill:url(#SVGID_00000020393631180176197030000010391341253778330267_);}
	.st9{fill:url(#SVGID_00000132790621101099050590000006288393559748212411_);}
	.st10{fill:url(#SVGID_00000124873416204751388560000000490637967504440498_);}
	.st11{fill:url(#SVGID_00000166655960184742254880000009442563593523511937_);}
	.st12{fill:url(#SVGID_00000011031227025484637310000011074502514120932763_);}
	.st13{fill:url(#SVGID_00000107550112800437011340000010384057655614270884_);}
	.st14{fill:url(#SVGID_00000031202692381097262330000005891749482485077419_);}
	.st15{fill:url(#SVGID_00000137824893035856521410000014071242111863313817_);}
	.st16{fill:url(#SVGID_00000084496434264501889360000011694141703447017601_);}
	.st17{fill:url(#SVGID_00000094577977098179602220000003111993914930096515_);}
	.st18{fill:url(#SVGID_00000000183801824833689260000014712323398708497058_);}
	.st19{fill:#FFFFFF;}
	.st20{fill:#5C2C0F;}
	.st21{display:none;}
	.st22{font-family:'Montserrat-Medium';}
	.st23{font-size:29px;}
	.st24{letter-spacing:1;}
</style>
<g>
	
		<linearGradient id="SVGID_1_" gradientUnits="userSpaceOnUse" x1="-158.8796" y1="183.2912" x2="-158.8796" y2="302.8874" gradientTransform="matrix(1 0 0 1 287 -197.3087)">
		<stop  offset="0" style="stop-color:#88236F"/>
		<stop  offset="1" style="stop-color:#79141C"/>
	</linearGradient>
	<path class="st0" d="M133.5,46c0-1.2-0.4-2.1-1.3-2.7c-0.8-0.6-2.3-1.3-4.5-2c-2.2-0.7-3.9-1.4-5.2-2.1c-3.5-1.9-5.2-4.4-5.2-7.5
		c0-1.6,0.5-3.1,1.4-4.4c0.9-1.3,2.3-2.3,4-3c1.7-0.7,3.7-1.1,5.8-1.1c2.2,0,4.1,0.4,5.8,1.2c1.7,0.8,3,1.9,4,3.3
		c0.9,1.4,1.4,3.1,1.4,4.9h-6.3c0-1.4-0.4-2.5-1.3-3.2c-0.9-0.8-2.1-1.2-3.7-1.2c-1.5,0-2.7,0.3-3.6,1c-0.8,0.6-1.3,1.5-1.3,2.6
		c0,1,0.5,1.8,1.5,2.5c1,0.7,2.5,1.3,4.4,1.9c3.6,1.1,6.2,2.4,7.8,4c1.6,1.6,2.4,3.6,2.4,5.9c0,2.6-1,4.7-3,6.2
		c-2,1.5-4.7,2.2-8,2.2c-2.3,0-4.5-0.4-6.4-1.3c-1.9-0.9-3.4-2-4.4-3.5c-1-1.5-1.5-3.2-1.5-5.2h6.3c0,3.4,2,5,6,5
		c1.5,0,2.7-0.3,3.5-0.9C133.1,48,133.5,47.1,133.5,46z"/>
	
		<linearGradient id="SVGID_00000112607850578883663940000014602457087644403595_" gradientUnits="userSpaceOnUse" x1="-140.0431" y1="183.2951" x2="-140.0431" y2="302.8829" gradientTransform="matrix(1 0 0 1 287 -197.3087)">
		<stop  offset="0" style="stop-color:#88236F"/>
		<stop  offset="1" style="stop-color:#79141C"/>
	</linearGradient>
	<path style="fill:url(#SVGID_00000112607850578883663940000014602457087644403595_);" d="M143.6,25.6c0-0.9,0.3-1.6,0.9-2.2
		c0.6-0.6,1.4-0.9,2.5-0.9c1,0,1.9,0.3,2.5,0.9c0.6,0.6,0.9,1.3,0.9,2.2c0,0.9-0.3,1.7-0.9,2.3c-0.6,0.6-1.4,0.9-2.5,0.9
		c-1,0-1.8-0.3-2.5-0.9C143.9,27.2,143.6,26.5,143.6,25.6z M150,54h-6.1V31.4h6.1V54z"/>
	
		<linearGradient id="SVGID_00000072260307152363081700000002978938537027703737_" gradientUnits="userSpaceOnUse" x1="-115.8596" y1="183.2951" x2="-115.8596" y2="302.8832" gradientTransform="matrix(1 0 0 1 287 -197.3087)">
		<stop  offset="0" style="stop-color:#88236F"/>
		<stop  offset="1" style="stop-color:#79141C"/>
	</linearGradient>
	<path style="fill:url(#SVGID_00000072260307152363081700000002978938537027703737_);" d="M160.6,31.4l0.2,2.5
		c1.6-2,3.8-2.9,6.5-2.9c2.9,0,4.9,1.1,6,3.4c1.6-2.3,3.8-3.4,6.8-3.4c2.5,0,4.3,0.7,5.5,2.1c1.2,1.4,1.8,3.6,1.8,6.4V54h-6.1V39.6
		c0-1.3-0.3-2.2-0.8-2.8c-0.5-0.6-1.4-0.9-2.7-0.9c-1.8,0-3.1,0.9-3.8,2.6l0,15.5h-6V39.6c0-1.3-0.3-2.3-0.8-2.8
		c-0.5-0.6-1.4-0.9-2.6-0.9c-1.7,0-2.9,0.7-3.7,2.1v16h-6V31.4L160.6,31.4L160.6,31.4z"/>
	
		<linearGradient id="SVGID_00000034053103982423632950000002665648624450312064_" gradientUnits="userSpaceOnUse" x1="-85.8946" y1="183.2932" x2="-85.8946" y2="302.8862" gradientTransform="matrix(1 0 0 1 287 -197.3087)">
		<stop  offset="0" style="stop-color:#88236F"/>
		<stop  offset="1" style="stop-color:#79141C"/>
	</linearGradient>
	<path style="fill:url(#SVGID_00000034053103982423632950000002665648624450312064_);" d="M205.1,54c-0.3-0.5-0.5-1.2-0.6-2
		c-1.5,1.6-3.4,2.4-5.7,2.4c-2.2,0-4-0.6-5.5-1.9c-1.5-1.3-2.2-2.9-2.2-4.8c0-2.4,0.9-4.2,2.7-5.5c1.8-1.3,4.3-1.9,7.7-1.9h2.8v-1.3
		c0-1-0.3-1.9-0.8-2.5c-0.5-0.6-1.4-0.9-2.5-0.9c-1,0-1.8,0.2-2.4,0.7c-0.6,0.5-0.9,1.2-0.9,2h-6c0-1.3,0.4-2.5,1.2-3.6
		c0.8-1.1,1.9-2,3.4-2.6c1.5-0.6,3.1-0.9,5-0.9c2.8,0,5,0.7,6.6,2.1c1.6,1.4,2.5,3.4,2.5,5.9v9.8c0,2.1,0.3,3.8,0.9,4.9V54L205.1,54
		L205.1,54z M200.1,49.8c0.9,0,1.7-0.2,2.5-0.6c0.8-0.4,1.3-0.9,1.7-1.6v-3.9h-2.3c-3,0-4.6,1-4.8,3.1l0,0.4c0,0.8,0.3,1.4,0.8,1.9
		C198.4,49.6,199.1,49.8,200.1,49.8z"/>
	
		<linearGradient id="SVGID_00000059301681553701788540000000983810983047369644_" gradientUnits="userSpaceOnUse" x1="-62.4961" y1="183.2951" x2="-62.4961" y2="302.8832" gradientTransform="matrix(1 0 0 1 287 -197.3087)">
		<stop  offset="0" style="stop-color:#88236F"/>
		<stop  offset="1" style="stop-color:#79141C"/>
	</linearGradient>
	<path style="fill:url(#SVGID_00000059301681553701788540000000983810983047369644_);" d="M220.4,31.4l0.2,2.6c1.6-2,3.8-3,6.5-3
		c2.4,0,4.2,0.7,5.3,2.1c1.2,1.4,1.8,3.5,1.8,6.3V54h-6V39.6c0-1.3-0.3-2.2-0.8-2.8c-0.6-0.6-1.5-0.9-2.8-0.9c-1.7,0-3,0.7-3.8,2.2
		V54h-6V31.4L220.4,31.4L220.4,31.4z"/>
	
		<linearGradient id="SVGID_00000118364106088152526020000017605502944994698388_" gradientUnits="userSpaceOnUse" x1="-38.9386" y1="183.2912" x2="-38.9386" y2="302.8873" gradientTransform="matrix(1 0 0 1 287 -197.3087)">
		<stop  offset="0" style="stop-color:#88236F"/>
		<stop  offset="1" style="stop-color:#79141C"/>
	</linearGradient>
	<path style="fill:url(#SVGID_00000118364106088152526020000017605502944994698388_);" d="M237.9,42.5c0-3.5,0.8-6.3,2.4-8.4
		c1.6-2.1,3.7-3.1,6.5-3.1c2.2,0,4,0.8,5.4,2.5V21.9h6.1V54h-5.4l-0.3-2.4c-1.5,1.9-3.4,2.8-5.8,2.8c-2.7,0-4.8-1-6.4-3.1
		C238.7,49.2,237.9,46.3,237.9,42.5z M243.9,43c0,2.1,0.4,3.7,1.1,4.9c0.7,1.1,1.8,1.7,3.2,1.7c1.9,0,3.2-0.8,3.9-2.4v-8.9
		c-0.8-1.6-2.1-2.4-3.9-2.4C245.4,35.9,243.9,38.3,243.9,43z"/>
	
		<linearGradient id="SVGID_00000003796225425310370690000002846621002190786200_" gradientUnits="userSpaceOnUse" x1="-14.4726" y1="183.2922" x2="-14.4726" y2="302.8849" gradientTransform="matrix(1 0 0 1 287 -197.3087)">
		<stop  offset="0" style="stop-color:#88236F"/>
		<stop  offset="1" style="stop-color:#79141C"/>
	</linearGradient>
	<path style="fill:url(#SVGID_00000003796225425310370690000002846621002190786200_);" d="M268.8,33.9c1.6-1.9,3.6-2.9,6-2.9
		c4.9,0,7.4,2.8,7.5,8.5V54h-6V39.7c0-1.3-0.3-2.2-0.8-2.9c-0.6-0.6-1.5-0.9-2.8-0.9c-1.8,0-3,0.7-3.8,2V54h-6V21.9h6L268.8,33.9
		L268.8,33.9z"/>
	
		<linearGradient id="SVGID_00000077305509009414456270000003303298887951579326_" gradientUnits="userSpaceOnUse" x1="8.9779" y1="183.2932" x2="8.9779" y2="302.8862" gradientTransform="matrix(1 0 0 1 287 -197.3087)">
		<stop  offset="0" style="stop-color:#88236F"/>
		<stop  offset="1" style="stop-color:#79141C"/>
	</linearGradient>
	<path style="fill:url(#SVGID_00000077305509009414456270000003303298887951579326_);" d="M299.9,54c-0.3-0.5-0.5-1.2-0.6-2
		c-1.5,1.6-3.4,2.4-5.7,2.4c-2.2,0-4-0.6-5.5-1.9c-1.5-1.3-2.2-2.9-2.2-4.8c0-2.4,0.9-4.2,2.7-5.5s4.3-1.9,7.7-1.9h2.8v-1.3
		c0-1-0.3-1.9-0.8-2.5c-0.5-0.6-1.4-0.9-2.5-0.9c-1,0-1.8,0.2-2.4,0.7c-0.6,0.5-0.9,1.2-0.9,2h-6c0-1.3,0.4-2.5,1.2-3.6
		c0.8-1.1,1.9-2,3.4-2.6c1.5-0.6,3.1-0.9,5-0.9c2.8,0,5,0.7,6.6,2.1c1.6,1.4,2.5,3.4,2.5,5.9v9.8c0,2.1,0.3,3.8,0.9,4.9V54L299.9,54
		L299.9,54z M294.9,49.8c0.9,0,1.7-0.2,2.5-0.6c0.8-0.4,1.3-0.9,1.7-1.6v-3.9h-2.3c-3,0-4.6,1-4.8,3.1l0,0.4c0,0.8,0.3,1.4,0.8,1.9
		C293.3,49.6,294,49.8,294.9,49.8z"/>
	
		<linearGradient id="SVGID_00000069381788329259300750000005914005839669083799_" gradientUnits="userSpaceOnUse" x1="29.1434" y1="183.2951" x2="29.1434" y2="302.8832" gradientTransform="matrix(1 0 0 1 287 -197.3087)">
		<stop  offset="0" style="stop-color:#88236F"/>
		<stop  offset="1" style="stop-color:#79141C"/>
	</linearGradient>
	<path style="fill:url(#SVGID_00000069381788329259300750000005914005839669083799_);" d="M322.4,37.1c-0.8-0.1-1.5-0.2-2.2-0.2
		c-2.3,0-3.8,0.8-4.5,2.3V54h-6V31.4h5.7l0.2,2.7c1.2-2.1,2.9-3.1,5-3.1c0.7,0,1.3,0.1,1.9,0.3L322.4,37.1z"/>
	
		<linearGradient id="SVGID_00000032628088853329342260000000018576070747655101_" gradientUnits="userSpaceOnUse" x1="59.5779" y1="183.2922" x2="59.5779" y2="302.8847" gradientTransform="matrix(1 0 0 1 287 -197.3087)">
		<stop  offset="0" style="stop-color:#88236F"/>
		<stop  offset="1" style="stop-color:#79141C"/>
	</linearGradient>
	<path style="fill:url(#SVGID_00000032628088853329342260000000018576070747655101_);" d="M354.7,40.8h-12V49h14.1v5h-20.4V23.6
		h20.3v5.1h-14.1v7.2h12V40.8z"/>
	
		<linearGradient id="SVGID_00000134953541332549985480000016292826168515775923_" gradientUnits="userSpaceOnUse" x1="81.8819" y1="183.2912" x2="81.8819" y2="302.8873" gradientTransform="matrix(1 0 0 1 287 -197.3087)">
		<stop  offset="0" style="stop-color:#88236F"/>
		<stop  offset="1" style="stop-color:#79141C"/>
	</linearGradient>
	<path style="fill:url(#SVGID_00000134953541332549985480000016292826168515775923_);" d="M358.7,42.5c0-3.5,0.8-6.3,2.4-8.4
		c1.6-2.1,3.7-3.1,6.5-3.1c2.2,0,4,0.8,5.4,2.5V21.9h6.1V54h-5.4l-0.3-2.4c-1.5,1.9-3.4,2.8-5.8,2.8c-2.7,0-4.8-1-6.4-3.1
		C359.5,49.2,358.7,46.3,358.7,42.5z M364.7,43c0,2.1,0.4,3.7,1.1,4.9c0.7,1.1,1.8,1.7,3.2,1.7c1.9,0,3.2-0.8,3.9-2.4v-8.9
		c-0.8-1.6-2.1-2.4-3.9-2.4C366.2,35.9,364.7,38.3,364.7,43z"/>
	
		<linearGradient id="SVGID_00000044137315034656582480000016614884716063358086_" gradientUnits="userSpaceOnUse" x1="106.3469" y1="183.2932" x2="106.3469" y2="302.8859" gradientTransform="matrix(1 0 0 1 287 -197.3087)">
		<stop  offset="0" style="stop-color:#88236F"/>
		<stop  offset="1" style="stop-color:#79141C"/>
	</linearGradient>
	<path style="fill:url(#SVGID_00000044137315034656582480000016614884716063358086_);" d="M397.3,51.7c-1.5,1.8-3.5,2.7-6.2,2.7
		c-2.4,0-4.3-0.7-5.5-2.1c-1.3-1.4-1.9-3.4-2-6.1V31.4h6V46c0,2.4,1.1,3.5,3.2,3.5c2,0,3.5-0.7,4.2-2.1v-16h6.1V54h-5.7L397.3,51.7z
		"/>
	
		<linearGradient id="SVGID_00000006674120945121891170000010133888928828916616_" gradientUnits="userSpaceOnUse" x1="129.6114" y1="183.2932" x2="129.6114" y2="302.8862" gradientTransform="matrix(1 0 0 1 287 -197.3087)">
		<stop  offset="0" style="stop-color:#88236F"/>
		<stop  offset="1" style="stop-color:#79141C"/>
	</linearGradient>
	<path style="fill:url(#SVGID_00000006674120945121891170000010133888928828916616_);" d="M417.1,49.6c1.1,0,2-0.3,2.7-0.9
		c0.7-0.6,1.1-1.4,1.1-2.4h5.7c0,1.5-0.4,2.9-1.3,4.2c-0.8,1.3-1.9,2.3-3.4,3c-1.4,0.7-3,1.1-4.7,1.1c-3.2,0-5.8-1-7.6-3.1
		c-1.9-2.1-2.8-4.9-2.8-8.5v-0.4c0-3.5,0.9-6.3,2.8-8.3c1.9-2.1,4.4-3.1,7.6-3.1c2.8,0,5.1,0.8,6.8,2.4c1.7,1.6,2.6,3.7,2.6,6.4
		h-5.7c0-1.2-0.4-2.1-1.1-2.9c-0.7-0.7-1.6-1.1-2.8-1.1c-1.4,0-2.5,0.5-3.2,1.5c-0.7,1-1.1,2.7-1.1,5V43c0,2.3,0.4,4,1.1,5
		C414.5,49,415.6,49.6,417.1,49.6z"/>
	
		<linearGradient id="SVGID_00000069362298665434293170000008096435274413468831_" gradientUnits="userSpaceOnUse" x1="152.0935" y1="183.2932" x2="152.0935" y2="302.8862" gradientTransform="matrix(1 0 0 1 287 -197.3087)">
		<stop  offset="0" style="stop-color:#88236F"/>
		<stop  offset="1" style="stop-color:#79141C"/>
	</linearGradient>
	<path style="fill:url(#SVGID_00000069362298665434293170000008096435274413468831_);" d="M443,54c-0.3-0.5-0.5-1.2-0.6-2
		c-1.5,1.6-3.4,2.4-5.7,2.4c-2.2,0-4-0.6-5.5-1.9c-1.5-1.3-2.2-2.9-2.2-4.8c0-2.4,0.9-4.2,2.7-5.5c1.8-1.3,4.3-1.9,7.7-1.9h2.8v-1.3
		c0-1-0.3-1.9-0.8-2.5c-0.5-0.6-1.4-0.9-2.5-0.9c-1,0-1.8,0.2-2.4,0.7c-0.6,0.5-0.9,1.2-0.9,2h-6c0-1.3,0.4-2.5,1.2-3.6
		c0.8-1.1,1.9-2,3.4-2.6c1.5-0.6,3.1-0.9,5-0.9c2.8,0,5,0.7,6.6,2.1c1.6,1.4,2.5,3.4,2.5,5.9v9.8c0,2.1,0.3,3.8,0.9,4.9V54L443,54
		L443,54z M438.1,49.8c0.9,0,1.7-0.2,2.5-0.6c0.8-0.4,1.3-0.9,1.7-1.6v-3.9h-2.3c-3,0-4.6,1-4.8,3.1l0,0.4c0,0.8,0.3,1.4,0.8,1.9
		C436.4,49.6,437.1,49.8,438.1,49.8z"/>
	
		<linearGradient id="SVGID_00000158021714962043648850000007343672066300990361_" gradientUnits="userSpaceOnUse" x1="170.4714" y1="183.2932" x2="170.4714" y2="302.8859" gradientTransform="matrix(1 0 0 1 287 -197.3087)">
		<stop  offset="0" style="stop-color:#88236F"/>
		<stop  offset="1" style="stop-color:#79141C"/>
	</linearGradient>
	<path style="fill:url(#SVGID_00000158021714962043648850000007343672066300990361_);" d="M460.1,25.9v5.6h3.9v4.4h-3.9v11.3
		c0,0.8,0.2,1.4,0.5,1.8c0.3,0.4,0.9,0.5,1.8,0.5c0.7,0,1.3,0,1.8-0.1v4.6c-1.2,0.4-2.4,0.5-3.7,0.5c-4.2,0-6.4-2.1-6.5-6.4V35.8
		h-3.3v-4.4h3.3v-5.6L460.1,25.9L460.1,25.9z"/>
	
		<linearGradient id="SVGID_00000090255084773521168290000001626645834428996796_" gradientUnits="userSpaceOnUse" x1="183.6549" y1="183.2951" x2="183.6549" y2="302.8829" gradientTransform="matrix(1 0 0 1 287 -197.3087)">
		<stop  offset="0" style="stop-color:#88236F"/>
		<stop  offset="1" style="stop-color:#79141C"/>
	</linearGradient>
	<path style="fill:url(#SVGID_00000090255084773521168290000001626645834428996796_);" d="M467.3,25.6c0-0.9,0.3-1.6,0.9-2.2
		c0.6-0.6,1.4-0.9,2.5-0.9c1,0,1.9,0.3,2.5,0.9c0.6,0.6,0.9,1.3,0.9,2.2c0,0.9-0.3,1.7-0.9,2.3c-0.6,0.6-1.4,0.9-2.5,0.9
		s-1.8-0.3-2.5-0.9C467.6,27.2,467.3,26.5,467.3,25.6z M473.7,54h-6.1V31.4h6.1V54z"/>
	
		<linearGradient id="SVGID_00000001640002972161708130000008689587318632004737_" gradientUnits="userSpaceOnUse" x1="201.4104" y1="183.2932" x2="201.4104" y2="302.8862" gradientTransform="matrix(1 0 0 1 287 -197.3087)">
		<stop  offset="0" style="stop-color:#88236F"/>
		<stop  offset="1" style="stop-color:#79141C"/>
	</linearGradient>
	<path style="fill:url(#SVGID_00000001640002972161708130000008689587318632004737_);" d="M477.7,42.5c0-2.2,0.4-4.2,1.3-6
		c0.9-1.8,2.1-3.1,3.7-4.1c1.6-1,3.5-1.4,5.6-1.4c3,0,5.5,0.9,7.5,2.8c1.9,1.9,3,4.4,3.2,7.6l0,1.5c0,3.5-1,6.2-2.9,8.3
		c-1.9,2.1-4.5,3.1-7.8,3.1c-3.3,0-5.9-1-7.8-3.1c-1.9-2.1-2.9-4.9-2.9-8.5L477.7,42.5L477.7,42.5z M483.7,42.9
		c0,2.1,0.4,3.8,1.2,4.9c0.8,1.1,2,1.7,3.5,1.7c1.5,0,2.6-0.6,3.4-1.7c0.8-1.1,1.2-2.9,1.2-5.4c0-2.1-0.4-3.7-1.2-4.9
		c-0.8-1.2-2-1.7-3.5-1.7c-1.5,0-2.6,0.6-3.4,1.7C484.1,38.7,483.7,40.5,483.7,42.9z"/>
	
		<linearGradient id="SVGID_00000114789298515304000720000018356465416682048179_" gradientUnits="userSpaceOnUse" x1="225.4484" y1="183.2951" x2="225.4484" y2="302.8832" gradientTransform="matrix(1 0 0 1 287 -197.3087)">
		<stop  offset="0" style="stop-color:#88236F"/>
		<stop  offset="1" style="stop-color:#79141C"/>
	</linearGradient>
	<path style="fill:url(#SVGID_00000114789298515304000720000018356465416682048179_);" d="M508.4,31.4l0.2,2.6c1.6-2,3.8-3,6.5-3
		c2.4,0,4.2,0.7,5.3,2.1c1.2,1.4,1.8,3.5,1.8,6.3V54h-6V39.6c0-1.3-0.3-2.2-0.8-2.8s-1.5-0.9-2.8-0.9c-1.7,0-3,0.7-3.8,2.2V54h-6
		V31.4L508.4,31.4L508.4,31.4z"/>
</g>
<g>
	
		<linearGradient id="SVGID_00000076566824579316778520000001146719852325748656_" gradientUnits="userSpaceOnUse" x1="-260.1461" y1="226.6486" x2="-191.664" y2="296.4229" gradientTransform="matrix(1 0 0 1 287 -197.3087)">
		<stop  offset="0" style="stop-color:#88236F"/>
		<stop  offset="1" style="stop-color:#79141C"/>
	</linearGradient>
	<path style="fill:url(#SVGID_00000076566824579316778520000001146719852325748656_);" d="M96.4,68.4c-0.6-2.9-16.2-30.3-18.7-35
		c-1.4-2.6-2.7-4.4-4-5.7c-1.6-1.9-3.6-3.7-5.9-4.3H68c-3.8-2-8.7-0.5-9.9-0.1c-2.4,0.5-4.6,2.4-6.3,4.4c-1.3,1.4-2.6,3.1-4,5.7
		c-2.5,4.7-18,32.1-18.7,35c-0.6,2.9-3.7,18.2,14,21.4h1.6H62h1.5h17.3h1.6C100.1,86.6,97.1,71.3,96.4,68.4z"/>
	<path class="st19" d="M62.9,27.3c-4.2,0-7.7,3.4-7.7,7.7c0,4.2,3.4,7.7,7.7,7.7c4.2,0,7.7-3.4,7.7-7.7
		C70.6,30.7,67.1,27.3,62.9,27.3z M62.9,38.8c-2.2,0-4-1.8-4-4c0-2.2,1.8-4,4-4c2.2,0,4,1.8,4,4C66.9,37.1,65.1,38.8,62.9,38.8z"/>
	<path class="st19" d="M76.3,67.8c2.2-2.1,5.6-3.1,8.5-2.2c3.2,0.8,6,3.6,6.6,6.9c0.4,2,0.1,4.1-0.7,6c-1.1,1.8-2.6,3.4-4.6,4.2
		c-3.3,1.5-7.5,0.6-10-2c-1.1-1.1-0.3-3.4,1.3-3.5c1.1-0.2,1.9,0.8,2.8,1.3c1.9,1.3,4.7,0.8,6.2-1.1c2-2.2,1.2-6.2-1.5-7.4
		c-1.8-1.1-4.3-0.5-5.7,1c-3.3,3.2-6.5,6.5-9.8,9.8c-2.2,2.2-5.5,3.2-8.5,2.4c-2.1-0.5-4.2-1.7-5.1-3.8c-0.2-1,0.7-2.1,1.8-2.2
		c1.4-0.3,2.2,1,3.3,1.5c1.5,0.8,3.3,0.5,4.8-0.4C69.4,75,72.7,71.2,76.3,67.8z"/>
	<path class="st20" d="M67.6,35.4"/>
	<path class="st19" d="M69.6,68.2c-2.5-2.9-7.1-3.8-10.5-2.1c-1.2,0.5-2.2,1.4-3.1,2.3c-3,3-6,6-8.9,9c-1.1,1.1-2.7,2-4.3,1.7
		c-2.7-0.3-4.8-3-4.4-5.7c0.5-2.8,3.9-4.9,6.6-3.7c1.2,0.4,1.9,1.7,3.2,1.7c1.5,0.2,2.6-1.9,1.8-3.1c-1.2-1.7-3.2-2.7-5.3-3
		c-4.1-0.8-8.5,1.7-9.9,5.6c-0.7,1.6-0.6,3.4-0.5,5.2c0.1,0.3,0.3,0.8,0.4,1.1c1.1,3.4,4.5,5.9,8.1,6.1c2.8,0.2,5.6-1.1,7.4-3.2
		c0.1-0.1,0.4-0.4,0.5-0.5c0.7-0.7,1.5-1.4,2.2-2.1l0.1-0.1c1.8-2,3.8-3.8,5.6-5.7c1.3-1.5,3.2-2.8,5.2-2.3c1.4,0.2,2.3,1.4,3.5,1.9
		C69.2,72,70.7,69.7,69.6,68.2z"/>
	<path class="st19" d="M54.3,51l0.5,1.7c0,0,4.3-1.1,8.2,1.4c3.8-2.6,8.1-1.4,8.2-1.4l0.5-1.7c-0.2-0.1-4.4-1.2-8.6,1.1
		C58.7,49.8,54.5,51,54.3,51z"/>
	<path class="st19" d="M56.7,60.2c0.8,0,1.5,0.1,2.2,0.3c1.3,0.3,2.3,1.1,3.3,1.9c0.3,0.2,0.6,0.5,0.8,0.7l0.4,0.4l0.4-0.3
		c0.3-0.3,0.6-0.5,0.9-0.7c1-0.8,2-1.6,3.3-1.9c0.8-0.2,1.7-0.3,2.6-0.3c1.4,0.1,2.7,0.4,4.1,0.7c0.8,0.2,1.7,0.4,2.4,0.5
		c0.2,0,0.5,0.1,0.7,0.1l0.2,0c1.6,0,2.9-0.8,3.5-2c0.8-1.9,0.3-4.1-0.2-5.9l-0.1-0.2c-0.7-2.5-1.8-4.9-3.1-7.8L78,45.2
		c0,0,0-0.1,0-0.1l-1.3-2.5c-0.5-1.1-1.9-1.5-3-0.9c-1.1,0.6-1.6,1.9-1,3l0.9,1.9c1,1.6,1.8,3.5,2.7,5.9c0.4,1.1,0.8,2.3,1,3.6
		l0.1,0.8l-0.8-0.2c-0.3-0.1-0.7-0.1-1-0.2l-0.2,0c-1.5-0.3-3.1-0.7-4.7-0.7c-0.6,0-1.1,0-1.6,0c-1.8,0.1-3.6,0.7-5.4,1.8l-0.3,0.2
		l-0.3-0.2c-1.9-1.1-3.7-1.7-5.4-1.8c-0.5-0.1-1.1-0.1-1.7,0c-1.6,0.1-3.2,0.4-4.7,0.7l-0.2,0c-0.3,0.1-0.7,0.1-1,0.2l-0.8,0.2
		l0.1-0.8c0.2-1.2,0.6-2.5,1-3.6c0.7-2,1.5-3.7,2.3-5.3l0.2-0.4c0.1-0.1,0.1-0.2,0.2-0.3l0.9-1.8c0.6-1.1,0.1-2.4-1-3
		c-1.1-0.6-2.5-0.1-3,0.9l-0.6,1.2c-0.3,0.4-0.4,0.8-0.6,1.2l-0.2,0.5c-1.4,2.9-2.5,5.4-3.2,7.8l0,0.2c-0.5,1.9-1,4-0.2,5.9
		c0.5,1.2,1.9,2,3.5,2l0.2,0c0.2,0,0.5,0,0.7-0.1c0.8-0.1,1.6-0.3,2.4-0.5c1.5-0.3,2.8-0.6,4.2-0.7C56.4,60.2,56.5,60.2,56.7,60.2z"
		/>
</g>
<g>
	<path d="M128.5,88.6c-1.6-0.9-2.9-2.1-3.8-3.7c-0.9-1.6-1.4-3.3-1.4-5.3c0-2,0.5-3.7,1.4-5.3c0.9-1.6,2.2-2.8,3.9-3.7
		c1.6-0.9,3.5-1.3,5.5-1.3c1.6,0,3,0.3,4.4,0.8c1.3,0.5,2.4,1.3,3.4,2.4l-1.9,1.8c-1.5-1.6-3.4-2.4-5.7-2.4c-1.5,0-2.9,0.3-4.1,1
		c-1.2,0.7-2.2,1.6-2.9,2.8c-0.7,1.2-1,2.5-1,4c0,1.5,0.3,2.8,1,4c0.7,1.2,1.6,2.1,2.9,2.8c1.2,0.7,2.6,1,4.1,1
		c2.3,0,4.2-0.8,5.7-2.4l1.9,1.8c-0.9,1-2.1,1.8-3.4,2.4c-1.3,0.5-2.8,0.8-4.4,0.8C131.9,90,130.1,89.5,128.5,88.6z"/>
	<path d="M159.1,75.9c1.1,1.1,1.7,2.8,1.7,5v8.8H158v-8.5c0-1.5-0.4-2.6-1.1-3.4c-0.7-0.8-1.7-1.1-3.1-1.1c-1.5,0-2.7,0.4-3.6,1.3
		s-1.3,2.1-1.3,3.8v7.9h-2.8V68.2h2.8v8.3c0.6-0.7,1.3-1.3,2.3-1.7c0.9-0.4,2-0.6,3.1-0.6C156.4,74.2,158,74.8,159.1,75.9z"/>
	<path d="M177.3,75.8c1.1,1,1.7,2.6,1.7,4.7v9.3h-2.6v-2c-0.5,0.7-1.1,1.3-2,1.6s-1.9,0.6-3.1,0.6c-1.7,0-3.1-0.4-4.1-1.2
		c-1-0.8-1.6-1.9-1.6-3.3s0.5-2.4,1.5-3.3c1-0.8,2.6-1.2,4.7-1.2h4.4v-0.6c0-1.2-0.3-2.1-1-2.8c-0.7-0.6-1.7-1-3.1-1
		c-0.9,0-1.8,0.2-2.7,0.5s-1.6,0.7-2.2,1.2l-1.2-2.1c0.8-0.6,1.7-1.1,2.8-1.5c1.1-0.3,2.3-0.5,3.5-0.5
		C174.5,74.2,176.1,74.7,177.3,75.8z M174.5,87.1c0.8-0.5,1.3-1.1,1.7-2v-2.1h-4.3c-2.4,0-3.5,0.8-3.5,2.4c0,0.8,0.3,1.4,0.9,1.8
		c0.6,0.4,1.4,0.7,2.5,0.7C172.8,87.8,173.7,87.5,174.5,87.1z"/>
	<path d="M197.8,75.9c1.1,1.1,1.7,2.8,1.7,5v8.8h-2.8v-8.5c0-1.5-0.4-2.6-1.1-3.4c-0.7-0.8-1.7-1.1-3.1-1.1c-1.5,0-2.7,0.4-3.6,1.3
		s-1.3,2.1-1.3,3.8v7.9h-2.8V74.4h2.7v2.3c0.6-0.8,1.3-1.4,2.3-1.8c1-0.4,2-0.6,3.3-0.6C195.1,74.2,196.6,74.8,197.8,75.9z"/>
	<path d="M220.2,74.4v13.3c0,2.7-0.7,4.7-2,6c-1.3,1.3-3.3,1.9-6,1.9c-1.5,0-2.8-0.2-4.1-0.6c-1.3-0.4-2.4-1-3.2-1.7l1.3-2.1
		c0.7,0.6,1.6,1.1,2.7,1.5c1.1,0.4,2.1,0.5,3.3,0.5c1.8,0,3.1-0.4,4-1.3c0.9-0.9,1.3-2.1,1.3-3.9v-1.2c-0.7,0.8-1.5,1.4-2.4,1.8
		c-1,0.4-2,0.6-3.1,0.6c-1.5,0-2.8-0.3-4-0.9c-1.2-0.6-2.1-1.5-2.8-2.6s-1-2.4-1-3.9s0.3-2.7,1-3.9c0.7-1.1,1.6-2,2.8-2.6
		c1.2-0.6,2.5-0.9,4-0.9c1.2,0,2.2,0.2,3.2,0.6c1,0.4,1.8,1.1,2.5,1.9v-2.4H220.2z M214.9,86c0.8-0.4,1.4-1,1.9-1.8
		c0.5-0.8,0.7-1.6,0.7-2.6c0-1.5-0.5-2.7-1.5-3.6c-1-0.9-2.3-1.4-3.8-1.4c-1.6,0-2.8,0.5-3.8,1.4c-1,0.9-1.5,2.1-1.5,3.6
		c0,1,0.2,1.8,0.7,2.6c0.5,0.8,1.1,1.4,1.9,1.8c0.8,0.4,1.7,0.6,2.7,0.6C213.2,86.7,214.1,86.5,214.9,86z"/>
	<path d="M226.4,70.9c-0.4-0.3-0.5-0.8-0.5-1.3s0.2-0.9,0.5-1.3c0.4-0.4,0.8-0.5,1.3-0.5c0.5,0,1,0.2,1.3,0.5
		c0.4,0.3,0.5,0.8,0.5,1.3c0,0.5-0.2,1-0.5,1.3c-0.4,0.4-0.8,0.5-1.3,0.5C227.2,71.4,226.7,71.2,226.4,70.9z M226.3,74.4h2.8v15.4
		h-2.8V74.4z"/>
	<path d="M248,75.9c1.1,1.1,1.7,2.8,1.7,5v8.8H247v-8.5c0-1.5-0.4-2.6-1.1-3.4c-0.7-0.8-1.7-1.1-3.1-1.1c-1.5,0-2.7,0.4-3.6,1.3
		s-1.3,2.1-1.3,3.8v7.9h-2.8V74.4h2.7v2.3c0.6-0.8,1.3-1.4,2.3-1.8c1-0.4,2-0.6,3.3-0.6C245.3,74.2,246.9,74.8,248,75.9z"/>
	<path d="M270.5,74.4v13.3c0,2.7-0.7,4.7-2,6c-1.3,1.3-3.3,1.9-6,1.9c-1.5,0-2.8-0.2-4.1-0.6c-1.3-0.4-2.4-1-3.2-1.7l1.3-2.1
		c0.7,0.6,1.6,1.1,2.7,1.5c1.1,0.4,2.1,0.5,3.3,0.5c1.8,0,3.1-0.4,4-1.3c0.9-0.9,1.3-2.1,1.3-3.9v-1.2c-0.7,0.8-1.5,1.4-2.4,1.8
		c-1,0.4-2,0.6-3.1,0.6c-1.5,0-2.8-0.3-4-0.9c-1.2-0.6-2.1-1.5-2.8-2.6s-1-2.4-1-3.9s0.3-2.7,1-3.9c0.7-1.1,1.6-2,2.8-2.6
		c1.2-0.6,2.5-0.9,4-0.9c1.2,0,2.2,0.2,3.2,0.6c1,0.4,1.8,1.1,2.5,1.9v-2.4H270.5z M265.2,86c0.8-0.4,1.4-1,1.9-1.8
		c0.5-0.8,0.7-1.6,0.7-2.6c0-1.5-0.5-2.7-1.5-3.6c-1-0.9-2.3-1.4-3.8-1.4c-1.6,0-2.8,0.5-3.8,1.4c-1,0.9-1.5,2.1-1.5,3.6
		c0,1,0.2,1.8,0.7,2.6c0.5,0.8,1.1,1.4,1.9,1.8c0.8,0.4,1.7,0.6,2.7,0.6C263.5,86.7,264.4,86.5,265.2,86z"/>
	<path d="M285.6,69.4h2.9v17.8h11v2.5h-13.9V69.4z"/>
	<path d="M303.2,70.9c-0.4-0.3-0.5-0.8-0.5-1.3s0.2-0.9,0.5-1.3c0.4-0.4,0.8-0.5,1.3-0.5c0.5,0,1,0.2,1.3,0.5
		c0.4,0.3,0.5,0.8,0.5,1.3c0,0.5-0.2,1-0.5,1.3c-0.4,0.4-0.8,0.5-1.3,0.5C304,71.4,303.6,71.2,303.2,70.9z M303.2,74.4h2.8v15.4
		h-2.8V74.4z"/>
	<path d="M325.7,74.4l-6.7,15.4h-2.8l-6.7-15.4h2.9l5.3,12.3l5.4-12.3H325.7z"/>
	<path d="M342.5,83H330c0.2,1.4,0.8,2.4,1.8,3.3c1,0.8,2.3,1.2,3.8,1.2c1.8,0,3.3-0.6,4.4-1.9l1.5,1.8c-0.7,0.8-1.6,1.4-2.6,1.9
		c-1,0.4-2.2,0.6-3.5,0.6c-1.6,0-3.1-0.3-4.3-1s-2.2-1.6-2.9-2.8c-0.7-1.2-1-2.6-1-4.1c0-1.5,0.3-2.8,1-4c0.7-1.2,1.6-2.1,2.8-2.8
		c1.2-0.7,2.5-1,4-1c1.5,0,2.8,0.3,3.9,1s2,1.6,2.7,2.8c0.6,1.2,1,2.6,1,4.1C342.5,82.4,342.5,82.6,342.5,83z M331.6,77.8
		c-0.9,0.8-1.4,1.9-1.6,3.2h9.9c-0.2-1.3-0.7-2.4-1.6-3.2c-0.9-0.8-2-1.2-3.3-1.2S332.5,77,331.6,77.8z"/>
	<path d="M347.9,89.4c-1.2-0.3-2.1-0.8-2.7-1.3l1.2-2.2c0.7,0.5,1.5,0.9,2.5,1.2c1,0.3,1.9,0.4,2.9,0.4c2.4,0,3.7-0.7,3.7-2.1
		c0-0.5-0.2-0.8-0.5-1.1c-0.3-0.3-0.7-0.5-1.2-0.6c-0.5-0.1-1.2-0.3-2.1-0.4c-1.2-0.2-2.2-0.4-3-0.7c-0.8-0.3-1.5-0.7-2-1.3
		c-0.6-0.6-0.8-1.4-0.8-2.5c0-1.4,0.6-2.5,1.7-3.3c1.2-0.8,2.7-1.3,4.7-1.3c1,0,2,0.1,3.1,0.4s1.9,0.6,2.5,1l-1.2,2.2
		c-1.3-0.8-2.7-1.2-4.4-1.2c-1.2,0-2.1,0.2-2.7,0.6c-0.6,0.4-0.9,0.9-0.9,1.5c0,0.5,0.2,0.9,0.5,1.2c0.3,0.3,0.8,0.5,1.3,0.6
		c0.5,0.1,1.2,0.3,2.2,0.5c1.2,0.2,2.2,0.4,3,0.7c0.8,0.2,1.4,0.7,2,1.2c0.5,0.6,0.8,1.4,0.8,2.4c0,1.4-0.6,2.5-1.8,3.3
		c-1.2,0.8-2.8,1.2-4.9,1.2C350.3,89.9,349.1,89.7,347.9,89.4z"/>
	<path d="M374.2,73v1.3h4.5v2.3h-4.4v13.1h-2.8V76.7h-2.6v-2.3h2.6V73c0-1.5,0.4-2.7,1.3-3.6c0.9-0.9,2.1-1.3,3.7-1.3
		c0.6,0,1.2,0.1,1.7,0.2c0.5,0.2,1,0.4,1.4,0.7l-0.8,2.1c-0.6-0.5-1.4-0.7-2.1-0.7C375,70.3,374.2,71.2,374.2,73z"/>
	<path d="M384.3,88.9c-1.2-0.7-2.2-1.6-2.9-2.8c-0.7-1.2-1-2.5-1-4c0-1.5,0.3-2.9,1-4s1.6-2.1,2.9-2.8c1.2-0.7,2.6-1,4.1-1
		s2.9,0.3,4.1,1s2.2,1.6,2.8,2.8c0.7,1.2,1,2.5,1,4c0,1.5-0.3,2.9-1,4c-0.7,1.2-1.6,2.1-2.8,2.8s-2.6,1-4.1,1S385.5,89.6,384.3,88.9
		z M391.1,86.8c0.8-0.5,1.4-1.1,1.8-1.9c0.4-0.8,0.7-1.8,0.7-2.8s-0.2-2-0.7-2.8c-0.4-0.8-1.1-1.5-1.8-1.9c-0.8-0.4-1.7-0.7-2.7-0.7
		c-1,0-1.9,0.2-2.7,0.7c-0.8,0.4-1.4,1.1-1.9,1.9c-0.5,0.8-0.7,1.8-0.7,2.8s0.2,2,0.7,2.8c0.5,0.8,1.1,1.5,1.9,1.9s1.7,0.7,2.7,0.7
		C389.4,87.5,390.3,87.3,391.1,86.8z"/>
	<path d="M405.8,74.9c0.9-0.5,2.1-0.7,3.5-0.7v2.7c-0.2,0-0.4,0-0.6,0c-1.5,0-2.7,0.4-3.6,1.3c-0.9,0.9-1.3,2.2-1.3,3.8v7.7H401
		V74.4h2.7V77C404.2,76.1,404.9,75.4,405.8,74.9z"/>
	<path d="M439.1,81c0.7,0.9,1,1.9,1,3.3c0,1.8-0.7,3.1-2,4.1s-3.3,1.4-5.8,1.4h-9.7V69.4h9.1c2.3,0,4.1,0.5,5.4,1.4s1.9,2.2,1.9,3.9
		c0,1.1-0.2,2-0.7,2.8s-1.2,1.4-2,1.8C437.5,79.5,438.5,80.1,439.1,81z M425.6,71.8v6.5h5.9c1.5,0,2.6-0.3,3.4-0.8
		c0.8-0.6,1.2-1.4,1.2-2.4c0-1.1-0.4-1.9-1.2-2.4c-0.8-0.6-1.9-0.8-3.4-0.8H425.6z M436,86.6c0.8-0.5,1.2-1.4,1.2-2.6
		c0-2.3-1.7-3.4-5-3.4h-6.7v6.8h6.7C433.9,87.4,435.1,87.1,436,86.6z"/>
	<path d="M458.9,83h-12.5c0.2,1.4,0.8,2.4,1.8,3.3c1,0.8,2.3,1.2,3.8,1.2c1.8,0,3.3-0.6,4.4-1.9l1.5,1.8c-0.7,0.8-1.6,1.4-2.6,1.9
		c-1,0.4-2.2,0.6-3.5,0.6c-1.6,0-3.1-0.3-4.3-1s-2.2-1.6-2.9-2.8c-0.7-1.2-1-2.6-1-4.1c0-1.5,0.3-2.8,1-4c0.7-1.2,1.6-2.1,2.8-2.8
		c1.2-0.7,2.5-1,4-1c1.5,0,2.8,0.3,3.9,1s2,1.6,2.7,2.8c0.6,1.2,1,2.6,1,4.1C458.9,82.4,458.9,82.6,458.9,83z M448,77.8
		c-0.9,0.8-1.4,1.9-1.6,3.2h9.9c-0.2-1.3-0.7-2.4-1.6-3.2c-0.9-0.8-2-1.2-3.3-1.2S448.9,77,448,77.8z"/>
	<path d="M472.2,88.8c-0.4,0.3-0.9,0.6-1.5,0.8c-0.6,0.2-1.2,0.3-1.9,0.3c-1.5,0-2.7-0.4-3.6-1.2c-0.9-0.8-1.3-2-1.3-3.6v-8.4h-2.6
		v-2.3h2.6V71h2.8v3.4h4.4v2.3h-4.4V85c0,0.8,0.2,1.5,0.6,1.9s1,0.7,1.8,0.7c0.9,0,1.6-0.2,2.2-0.7L472.2,88.8z"/>
	<path d="M484.6,88.8c-0.4,0.3-0.9,0.6-1.5,0.8c-0.6,0.2-1.2,0.3-1.9,0.3c-1.5,0-2.7-0.4-3.6-1.2c-0.9-0.8-1.3-2-1.3-3.6v-8.4h-2.6
		v-2.3h2.6V71h2.8v3.4h4.4v2.3h-4.4V85c0,0.8,0.2,1.5,0.6,1.9s1,0.7,1.8,0.7c0.9,0,1.6-0.2,2.2-0.7L484.6,88.8z"/>
	<path d="M502.1,83h-12.5c0.2,1.4,0.8,2.4,1.8,3.3c1,0.8,2.3,1.2,3.8,1.2c1.8,0,3.3-0.6,4.4-1.9l1.5,1.8c-0.7,0.8-1.6,1.4-2.6,1.9
		c-1,0.4-2.2,0.6-3.5,0.6c-1.6,0-3.1-0.3-4.3-1s-2.2-1.6-2.9-2.8c-0.7-1.2-1-2.6-1-4.1c0-1.5,0.3-2.8,1-4c0.7-1.2,1.6-2.1,2.8-2.8
		c1.2-0.7,2.5-1,4-1c1.5,0,2.8,0.3,3.9,1s2,1.6,2.7,2.8c0.6,1.2,1,2.6,1,4.1C502.1,82.4,502.1,82.6,502.1,83z M491.2,77.8
		c-0.9,0.8-1.4,1.9-1.6,3.2h9.9c-0.2-1.3-0.7-2.4-1.6-3.2c-0.9-0.8-2-1.2-3.3-1.2S492.1,77,491.2,77.8z"/>
	<path d="M511.6,74.9c0.9-0.5,2.1-0.7,3.5-0.7v2.7c-0.2,0-0.4,0-0.6,0c-1.5,0-2.7,0.4-3.6,1.3c-0.9,0.9-1.3,2.2-1.3,3.8v7.7h-2.8
		V74.4h2.7V77C509.9,76.1,510.6,75.4,511.6,74.9z"/>
</g>
<text transform="matrix(1 0 0 1 115.957 89.7423)" class="st21 st22 st23 st24">Changing Lives for Better</text>
</svg>
