<svg width="18" height="21" viewBox="0 0 18 21" fill="none" xmlns="http://www.w3.org/2000/svg">
<path d="M8 14C8 14.5523 8.44772 15 9 15C9.55228 15 10 14.5523 10 14L8 14ZM9.70711 0.292893C9.31658 -0.0976314 8.68342 -0.0976315 8.29289 0.292893L1.92893 6.65685C1.53841 7.04738 1.53841 7.68054 1.92893 8.07107C2.31946 8.46159 2.95262 8.46159 3.34315 8.07107L9 2.41421L14.6569 8.07107C15.0474 8.46159 15.6805 8.46159 16.0711 8.07107C16.4616 7.68054 16.4616 7.04738 16.0711 6.65685L9.70711 0.292893ZM10 14L10 1L8 1L8 14L10 14Z" fill="black"/>
<path d="M1 14V19C1 19.5523 1.44772 20 2 20H16C16.5523 20 17 19.5523 17 19V14" stroke="black" stroke-width="2" stroke-linecap="round"/>
</svg>
