<svg width="18" height="22" viewBox="0 0 18 22" fill="none" xmlns="http://www.w3.org/2000/svg">
<path d="M8 14.9155C8 15.4678 8.44772 15.9155 9 15.9155C9.55228 15.9155 10 15.4678 10 14.9155L8 14.9155ZM9.70711 1.20842C9.31658 0.817896 8.68342 0.817896 8.29289 1.20842L1.92893 7.57238C1.53841 7.96291 1.53841 8.59607 1.92893 8.98659C2.31946 9.37712 2.95262 9.37712 3.34315 8.98659L9 3.32974L14.6569 8.9866C15.0474 9.37712 15.6805 9.37712 16.0711 8.9866C16.4616 8.59607 16.4616 7.96291 16.0711 7.57238L9.70711 1.20842ZM10 14.9155L10 1.91553L8 1.91553L8 14.9155L10 14.9155Z" fill="white"/>
<path d="M1 14.9155V19.9155C1 20.4678 1.44772 20.9155 2 20.9155H16C16.5523 20.9155 17 20.4678 17 19.9155V14.9155" stroke="white" stroke-width="2" stroke-linecap="round"/>
</svg>
