<svg width="19" height="23" viewBox="0 0 19 23" fill="none" xmlns="http://www.w3.org/2000/svg">
<path d="M10.2812 8.07397C10.2813 7.52169 9.83353 7.07397 9.28125 7.07397C8.72897 7.07397 8.28125 7.52169 8.28125 8.07397L10.2812 8.07397ZM8.57414 21.9619C8.96467 22.3524 9.59783 22.3524 9.98835 21.9619L16.3523 15.5979C16.7428 15.2074 16.7428 14.5742 16.3523 14.1837C15.9618 13.7932 15.3286 13.7932 14.9381 14.1837L9.28125 19.8406L3.6244 14.1837C3.23387 13.7932 2.60071 13.7932 2.21018 14.1837C1.81966 14.5742 1.81966 15.2074 2.21018 15.5979L8.57414 21.9619ZM8.28125 8.07397L8.28125 21.2548L10.2812 21.2548L10.2812 8.07397L8.28125 8.07397Z" fill="#760B28"/>
<path d="M17.3906 8.07397L17.3906 2.99053C17.3906 2.43825 16.9429 1.99053 16.3906 1.99053L2.16811 1.99053C1.61583 1.99053 1.16811 2.43825 1.16811 2.99053L1.16811 8.07397" stroke="#760B28" stroke-width="2" stroke-linecap="round"/>
</svg>
