<svg width="55" height="200" viewBox="0 0 55 200" fill="none" xmlns="http://www.w3.org/2000/svg">

<style xmlns="http://www.w3.org/2000/svg">
	@keyframes blink {
    0% {
           fill: #760B28;
    }
    50% {
           fill: #f7dd56;
    }
    100% {
           fill: #760B28;
    }
}
@-webkit-keyframes blink {
    0% {
           fill: #760B28;
         
    }
    50% {
           fill: #f7dd56;
    }
    100% {
           fill: #760B28;
    }
}
#blink-text{ -moz-transition:all 1s ease-in-out;
    -webkit-transition:all 1s ease-in-out;
    -o-transition:all 1s ease-in-out;
    -ms-transition:all 1s ease-in-out;
    transition:all 1s ease-in-out;
    -moz-animation:blink normal 1.5s infinite ease-in-out;
    /* Firefox */
    -webkit-animation:blink normal 1.5s infinite ease-in-out;
    /* Webkit */
    -ms-animation:blink normal 1.5s infinite ease-in-out;
    /* IE */
    animation:blink normal 1.5s infinite ease-in-out;}
</style>



<path id="blink-color" d="M0 10C0 4.47716 4.47715 0 10 0H55V200H10C4.47715 200 0 195.523 0 190V10Z" fill="#F7DD56"/>
<path id="blink-text" d="M38 181.956L18.4 181.956L18.4 169.608L21.144 169.608L21.144 178.932L26.772 178.932L26.772 170.392L29.516 170.392L29.516 178.932L35.256 178.932L35.256 169.468L38 169.468L38 181.956ZM38 166.231L24.196 166.231L24.196 163.403L26.268 163.403L26.268 162.955C25.708 162.694 25.1853 162.227 24.7 161.555C24.2147 160.883 23.972 159.885 23.972 158.559C23.972 157.514 24.2053 156.59 24.672 155.787C25.1387 154.966 25.8013 154.322 26.66 153.855C27.5 153.389 28.5173 153.155 29.712 153.155L38 153.155L38 156.039L29.936 156.039C28.7413 156.039 27.864 156.338 27.304 156.935C26.7253 157.533 26.436 158.354 26.436 159.399C26.436 160.594 26.828 161.555 27.612 162.283C28.396 162.993 29.5347 163.347 31.028 163.347L38 163.347L38 166.231ZM43.6 138.197L36.124 138.197L36.124 138.645C36.4973 138.85 36.8613 139.149 37.216 139.541C37.552 139.933 37.832 140.437 38.056 141.053C38.28 141.65 38.392 142.397 38.392 143.293C38.392 144.45 38.112 145.514 37.552 146.485C36.992 147.455 36.1893 148.23 35.144 148.809C34.08 149.387 32.8013 149.677 31.308 149.677L30.888 149.677C29.3947 149.677 28.1253 149.387 27.08 148.809C26.016 148.211 25.204 147.427 24.644 146.457C24.084 145.486 23.804 144.431 23.804 143.293C23.804 141.949 24.0467 140.922 24.532 140.213C25.0173 139.485 25.568 138.943 26.184 138.589L26.184 138.141L24.196 138.141L24.196 135.313L43.6 135.313L43.6 138.197ZM35.872 142.481C35.872 141.211 35.4707 140.175 34.668 139.373C33.8653 138.57 32.7173 138.169 31.224 138.169L30.972 138.169C29.4973 138.169 28.3587 138.579 27.556 139.401C26.7533 140.203 26.352 141.23 26.352 142.481C26.352 143.713 26.7533 144.739 27.556 145.561C28.3587 146.363 29.4973 146.765 30.972 146.765L31.224 146.765C32.7173 146.765 33.8653 146.363 34.668 145.561C35.4707 144.739 35.872 143.713 35.872 142.481ZM38.252 125.775C38.252 126.821 38.0187 127.754 37.552 128.575C37.0853 129.397 36.4227 130.041 35.564 130.507C34.7053 130.974 33.6787 131.207 32.484 131.207L24.196 131.207L24.196 128.323L32.288 128.323C33.4827 128.323 34.3693 128.025 34.948 127.427C35.508 126.83 35.788 125.999 35.788 124.935C35.788 123.759 35.396 122.817 34.612 122.107C33.8093 121.379 32.6613 121.015 31.168 121.015L24.196 121.015L24.196 118.131L38 118.131L38 120.959L35.928 120.959L35.928 121.407C36.488 121.669 37.02 122.135 37.524 122.807C38.0093 123.479 38.252 124.469 38.252 125.775ZM38 113.868L24.196 113.868L24.196 110.984L38 110.984L38 113.868ZM22.32 112.412C22.32 112.972 22.1427 113.448 21.788 113.84C21.4147 114.213 20.9387 114.4 20.36 114.4C19.7813 114.4 19.3147 114.213 18.96 113.84C18.5867 113.448 18.4 112.972 18.4 112.412C18.4 111.833 18.5867 111.357 18.96 110.984C19.3147 110.611 19.7813 110.424 20.36 110.424C20.9387 110.424 21.4147 110.611 21.788 110.984C22.1427 111.357 22.32 111.833 22.32 112.412ZM38 106.704L24.196 106.704L24.196 103.876L25.82 103.876L25.82 103.428C25.2413 103.204 24.8213 102.849 24.56 102.364C24.28 101.86 24.14 101.244 24.14 100.516L24.14 98.864L26.744 98.864L26.744 100.628C26.744 101.561 27.0053 102.327 27.528 102.924C28.032 103.521 28.816 103.82 29.88 103.82L38 103.82L38 106.704ZM38.392 90.0401C38.392 91.4401 38.1027 92.6628 37.524 93.7081C36.9267 94.7534 36.096 95.5748 35.032 96.1721C33.9493 96.7508 32.6987 97.0401 31.28 97.0401L30.944 97.0401C29.5067 97.0401 28.256 96.7508 27.192 96.1721C26.1093 95.5934 25.2787 94.7908 24.7 93.7641C24.1027 92.7188 23.804 91.5148 23.804 90.1521C23.804 88.8268 24.1027 87.6694 24.7 86.6801C25.2787 85.6721 26.0907 84.8881 27.136 84.3281C28.1813 83.7681 29.404 83.4881 30.804 83.4881L31.896 83.4881L31.896 94.1001C33.1093 94.0628 34.08 93.6614 34.808 92.8961C35.5173 92.1121 35.872 91.1414 35.872 89.9841C35.872 88.9014 35.6293 88.0894 35.144 87.5481C34.6587 86.9881 34.0987 86.5588 33.464 86.2601L34.696 83.8801C35.2187 84.1414 35.7693 84.5241 36.348 85.0281C36.9267 85.5134 37.412 86.1574 37.804 86.9601C38.196 87.7628 38.392 88.7894 38.392 90.0401ZM29.684 94.0721L29.684 86.4281C28.6387 86.5028 27.8267 86.8761 27.248 87.5481C26.6507 88.2201 26.352 89.0974 26.352 90.1801C26.352 91.2628 26.6507 92.1494 27.248 92.8401C27.8267 93.5121 28.6387 93.9228 29.684 94.0721ZM38 72.9638L18.4 72.9638L18.4 67.1398L35.984 61.8198L35.984 61.3718L18.4 61.3718L18.4 58.3758L38 58.3758L38 64.1998L20.388 69.5198L20.388 69.9678L38 69.9678L38 72.9638ZM38.392 47.736C38.392 49.1174 38.112 50.3494 37.552 51.432C36.9733 52.496 36.152 53.336 35.088 53.952C34.024 54.568 32.764 54.876 31.308 54.876L30.888 54.876C29.432 54.876 28.1813 54.568 27.136 53.952C26.072 53.336 25.2507 52.496 24.672 51.432C24.0933 50.3494 23.804 49.1174 23.804 47.736C23.804 46.3547 24.0933 45.1227 24.672 44.04C25.2507 42.9574 26.072 42.108 27.136 41.492C28.1813 40.876 29.432 40.568 30.888 40.568L31.308 40.568C32.764 40.568 34.024 40.876 35.088 41.492C36.152 42.108 36.9733 42.9574 37.552 44.04C38.112 45.1227 38.392 46.3547 38.392 47.736ZM35.816 47.736C35.816 46.4667 35.4147 45.44 34.612 44.656C33.7907 43.8534 32.6613 43.452 31.224 43.452L30.972 43.452C29.5347 43.452 28.4147 43.844 27.612 44.628C26.7907 45.412 26.38 46.448 26.38 47.736C26.38 48.9867 26.7907 50.0134 27.612 50.816C28.4147 51.6 29.5347 51.992 30.972 51.992L31.224 51.992C32.6613 51.992 33.7907 51.6 34.612 50.816C35.4147 50.0134 35.816 48.9867 35.816 47.736ZM38 35.6295L24.196 37.9815L24.196 35.0975L36.068 33.3615L36.068 32.9135L24.196 30.5055L24.196 25.8295L36.068 23.4495L36.068 23.0015L24.196 21.2655L24.196 18.3815L38 20.7335L38 25.5775L26.156 27.9575L26.156 28.4055L38 30.7855L38 35.6295Z" fill="#760B28"/>
</svg>
