<svg width="27" height="21" viewBox="0 0 27 21" fill="none" xmlns="http://www.w3.org/2000/svg">
<path d="M26.4284 1.334C27.0551 1.96071 27.0551 2.9768 26.4284 3.60351L9.69119 20.3407C8.91014 21.1217 7.64382 21.1217 6.86277 20.3407L0.574964 14.0529C-0.0532401 13.4247 -0.0532404 12.4062 0.574963 11.778C1.19972 11.1532 2.21143 11.1493 2.84102 11.7691L6.86707 15.7331C7.64818 16.5022 8.90281 16.4992 9.68023 15.7264L24.1623 1.33062C24.7895 0.707108 25.803 0.708621 26.4284 1.334Z" fill="#7C172D"/>
<path d="M26.4284 1.334C27.0551 1.96071 27.0551 2.9768 26.4284 3.60351L9.69119 20.3407C8.91014 21.1217 7.64382 21.1217 6.86277 20.3407L0.574964 14.0529C-0.0532401 13.4247 -0.0532404 12.4062 0.574963 11.778C1.19972 11.1532 2.21143 11.1493 2.84102 11.7691L6.86707 15.7331C7.64818 16.5022 8.90281 16.4992 9.68023 15.7264L24.1623 1.33062C24.7895 0.707108 25.803 0.708621 26.4284 1.334Z" fill="white"/>
</svg>
