<svg width="14" height="14" viewBox="0 0 14 14" fill="none" xmlns="http://www.w3.org/2000/svg">
<path d="M1.70711 0.292893C1.31658 -0.0976311 0.683418 -0.0976311 0.292893 0.292893C-0.0976311 0.683418 -0.0976311 1.31658 0.292893 1.70711L1.70711 0.292893ZM12.3137 13.3137C12.866 13.3137 13.3137 12.866 13.3137 12.3137L13.3137 3.31371C13.3137 2.76142 12.866 2.31371 12.3137 2.31371C11.7614 2.31371 11.3137 2.76142 11.3137 3.31371V11.3137H3.31371C2.76142 11.3137 2.31371 11.7614 2.31371 12.3137C2.31371 12.866 2.76142 13.3137 3.31371 13.3137L12.3137 13.3137ZM0.292893 1.70711L11.6066 13.0208L13.0208 11.6066L1.70711 0.292893L0.292893 1.70711Z" fill="black"/>
</svg>
